<mxfile host="app.diagrams.net" modified="2024-03-28T18:57:38.526Z" agent="Mozilla/5.0 (Windows NT 10.0; Win64; x64; rv:124.0) Gecko/20100101 Firefox/124.0" etag="wUCrwwbjBsgIsMVErT1W" version="24.0.5" type="github">
  <diagram name="Page-1" id="Ej0-S0-GbEZb4ICbwNAr">
    <mxGraphModel dx="1434" dy="726" grid="1" gridSize="10" guides="1" tooltips="1" connect="1" arrows="1" fold="1" page="1" pageScale="1" pageWidth="850" pageHeight="1100" math="0" shadow="0">
      <root>
        <mxCell id="0" />
        <mxCell id="1" parent="0" />
        <mxCell id="Sf3JMctmSrdisTES08zo-3" value="" style="edgeStyle=orthogonalEdgeStyle;rounded=0;orthogonalLoop=1;jettySize=auto;html=1;" edge="1" parent="1" source="Sf3JMctmSrdisTES08zo-1" target="Sf3JMctmSrdisTES08zo-2">
          <mxGeometry relative="1" as="geometry" />
        </mxCell>
        <mxCell id="Sf3JMctmSrdisTES08zo-1" value="&lt;div&gt;Fuel consuption from ANP&lt;/div&gt;&lt;div&gt;link para download dos dados:&lt;/div&gt;&lt;div&gt;http:&lt;br&gt;&lt;/div&gt;" style="rounded=0;whiteSpace=wrap;html=1;" vertex="1" parent="1">
          <mxGeometry x="40" y="50" width="160" height="130" as="geometry" />
        </mxCell>
        <mxCell id="Sf3JMctmSrdisTES08zo-2" value="&lt;div&gt;prepFuelConsumption.py&lt;/div&gt;" style="ellipse;whiteSpace=wrap;html=1;" vertex="1" parent="1">
          <mxGeometry x="40" y="230" width="160" height="80" as="geometry" />
        </mxCell>
      </root>
    </mxGraphModel>
  </diagram>
</mxfile>
